<mxfile host="app.diagrams.net" modified="2020-12-10T10:50:49.052Z" agent="5.0 (Windows NT 10.0; Win64; x64) AppleWebKit/537.36 (KHTML, like Gecko) Chrome/86.0.4240.198 Safari/537.36" etag="GMTHioNMor8lpj-GarLK" version="14.0.0" type="github">
  <diagram id="scl7JRm1ayP_J5yDaK-w" name="ActionAuthorizationExtension">
    <mxGraphModel dx="782" dy="437" grid="1" gridSize="10" guides="1" tooltips="1" connect="1" arrows="1" fold="1" page="1" pageScale="1" pageWidth="850" pageHeight="1100" math="0" shadow="0">
      <root>
        <mxCell id="mP8zGqXMA4O88I_NiR8t-0" />
        <mxCell id="mP8zGqXMA4O88I_NiR8t-1" parent="mP8zGqXMA4O88I_NiR8t-0" />
        <mxCell id="OBWjnhMwHxojIDaJZw8V-15" value="" style="edgeStyle=orthogonalEdgeStyle;rounded=0;orthogonalLoop=1;jettySize=auto;html=1;" edge="1" parent="mP8zGqXMA4O88I_NiR8t-1" source="mP8zGqXMA4O88I_NiR8t-4" target="mP8zGqXMA4O88I_NiR8t-9">
          <mxGeometry relative="1" as="geometry" />
        </mxCell>
        <mxCell id="mP8zGqXMA4O88I_NiR8t-4" value="&lt;font style=&quot;font-size: 10px&quot;&gt;GetAuthorizationDetails&lt;/font&gt;" style="strokeWidth=2;html=1;shape=mxgraph.flowchart.start_1;whiteSpace=wrap;" vertex="1" parent="mP8zGqXMA4O88I_NiR8t-1">
          <mxGeometry x="80" y="20" width="120" height="70" as="geometry" />
        </mxCell>
        <mxCell id="mP8zGqXMA4O88I_NiR8t-17" value="" style="edgeStyle=orthogonalEdgeStyle;rounded=0;orthogonalLoop=1;jettySize=auto;html=1;" edge="1" parent="mP8zGqXMA4O88I_NiR8t-1" source="mP8zGqXMA4O88I_NiR8t-8" target="mP8zGqXMA4O88I_NiR8t-9">
          <mxGeometry relative="1" as="geometry" />
        </mxCell>
        <mxCell id="mP8zGqXMA4O88I_NiR8t-8" value="PREPARE AUTHORIZATION RESOURCE&amp;nbsp;" style="rounded=0;whiteSpace=wrap;html=1;" vertex="1" parent="mP8zGqXMA4O88I_NiR8t-1">
          <mxGeometry x="80" y="120" width="120" height="60" as="geometry" />
        </mxCell>
        <mxCell id="mP8zGqXMA4O88I_NiR8t-21" value="" style="edgeStyle=orthogonalEdgeStyle;rounded=0;orthogonalLoop=1;jettySize=auto;html=1;" edge="1" parent="mP8zGqXMA4O88I_NiR8t-1" source="mP8zGqXMA4O88I_NiR8t-9" target="mP8zGqXMA4O88I_NiR8t-10">
          <mxGeometry relative="1" as="geometry" />
        </mxCell>
        <mxCell id="mP8zGqXMA4O88I_NiR8t-9" value="GET EXISTING AUTHORIZATION RESOURCE&lt;br&gt;(returns tuple result of authorization resource base )" style="rounded=0;whiteSpace=wrap;html=1;" vertex="1" parent="mP8zGqXMA4O88I_NiR8t-1">
          <mxGeometry x="50" y="200" width="180" height="90" as="geometry" />
        </mxCell>
        <mxCell id="aBT9iJJJUrErXHgyQ5KE-0" value="" style="edgeStyle=orthogonalEdgeStyle;rounded=0;orthogonalLoop=1;jettySize=auto;html=1;" edge="1" parent="mP8zGqXMA4O88I_NiR8t-1" source="mP8zGqXMA4O88I_NiR8t-10" target="mP8zGqXMA4O88I_NiR8t-11">
          <mxGeometry relative="1" as="geometry" />
        </mxCell>
        <mxCell id="mP8zGqXMA4O88I_NiR8t-10" value="SINGLE AUTHORIZATION RESOURCE" style="rounded=0;whiteSpace=wrap;html=1;" vertex="1" parent="mP8zGqXMA4O88I_NiR8t-1">
          <mxGeometry x="280" y="215" width="120" height="60" as="geometry" />
        </mxCell>
        <mxCell id="aBT9iJJJUrErXHgyQ5KE-3" value="" style="edgeStyle=orthogonalEdgeStyle;rounded=0;orthogonalLoop=1;jettySize=auto;html=1;" edge="1" parent="mP8zGqXMA4O88I_NiR8t-1" source="mP8zGqXMA4O88I_NiR8t-11" target="mP8zGqXMA4O88I_NiR8t-12">
          <mxGeometry relative="1" as="geometry" />
        </mxCell>
        <mxCell id="mP8zGqXMA4O88I_NiR8t-11" value="RESOLVE SIGNATORIES COMBINATIONS&lt;br&gt;(Gets the signing models)" style="rounded=0;whiteSpace=wrap;html=1;" vertex="1" parent="mP8zGqXMA4O88I_NiR8t-1">
          <mxGeometry x="270" y="310" width="140" height="60" as="geometry" />
        </mxCell>
        <mxCell id="OBWjnhMwHxojIDaJZw8V-0" value="" style="edgeStyle=orthogonalEdgeStyle;rounded=0;orthogonalLoop=1;jettySize=auto;html=1;" edge="1" parent="mP8zGqXMA4O88I_NiR8t-1" source="mP8zGqXMA4O88I_NiR8t-12" target="mP8zGqXMA4O88I_NiR8t-13">
          <mxGeometry relative="1" as="geometry" />
        </mxCell>
        <mxCell id="mP8zGqXMA4O88I_NiR8t-12" value="RESOLVE ALLOWED AUTHORIZATION METHODS&lt;br&gt;(Gets or sets the signatories per groups)" style="rounded=0;whiteSpace=wrap;html=1;" vertex="1" parent="mP8zGqXMA4O88I_NiR8t-1">
          <mxGeometry x="250" y="400" width="180" height="60" as="geometry" />
        </mxCell>
        <mxCell id="OBWjnhMwHxojIDaJZw8V-9" value="" style="edgeStyle=orthogonalEdgeStyle;rounded=0;orthogonalLoop=1;jettySize=auto;html=1;" edge="1" parent="mP8zGqXMA4O88I_NiR8t-1" source="mP8zGqXMA4O88I_NiR8t-13" target="mP8zGqXMA4O88I_NiR8t-14">
          <mxGeometry relative="1" as="geometry" />
        </mxCell>
        <mxCell id="mP8zGqXMA4O88I_NiR8t-13" value="CHECK EXISTING AUTHORIZATIONS(checks correct number of required signatures with number of existing)" style="rounded=0;whiteSpace=wrap;html=1;" vertex="1" parent="mP8zGqXMA4O88I_NiR8t-1">
          <mxGeometry x="235" y="490" width="210" height="60" as="geometry" />
        </mxCell>
        <mxCell id="OBWjnhMwHxojIDaJZw8V-11" value="" style="edgeStyle=orthogonalEdgeStyle;rounded=0;orthogonalLoop=1;jettySize=auto;html=1;" edge="1" parent="mP8zGqXMA4O88I_NiR8t-1" source="mP8zGqXMA4O88I_NiR8t-14" target="OBWjnhMwHxojIDaJZw8V-10">
          <mxGeometry relative="1" as="geometry" />
        </mxCell>
        <mxCell id="mP8zGqXMA4O88I_NiR8t-14" value="RESOLVE OVERALL STATUS(returns status (Pending-auth, Authorized, Not possible of authorizations)" style="rounded=0;whiteSpace=wrap;html=1;" vertex="1" parent="mP8zGqXMA4O88I_NiR8t-1">
          <mxGeometry x="240" y="580" width="200" height="60" as="geometry" />
        </mxCell>
        <mxCell id="mP8zGqXMA4O88I_NiR8t-16" value="" style="strokeWidth=2;html=1;shape=mxgraph.flowchart.decision;whiteSpace=wrap;" vertex="1" parent="mP8zGqXMA4O88I_NiR8t-1">
          <mxGeometry x="630" y="70" width="100" height="100" as="geometry" />
        </mxCell>
        <mxCell id="OBWjnhMwHxojIDaJZw8V-13" value="" style="edgeStyle=orthogonalEdgeStyle;rounded=0;orthogonalLoop=1;jettySize=auto;html=1;" edge="1" parent="mP8zGqXMA4O88I_NiR8t-1" source="OBWjnhMwHxojIDaJZw8V-10" target="OBWjnhMwHxojIDaJZw8V-12">
          <mxGeometry relative="1" as="geometry" />
        </mxCell>
        <mxCell id="OBWjnhMwHxojIDaJZw8V-10" value="CHECK IS AUTHORIZABLE BY CURRENT USER(checks is it authorizable by current user)" style="rounded=0;whiteSpace=wrap;html=1;" vertex="1" parent="mP8zGqXMA4O88I_NiR8t-1">
          <mxGeometry x="260" y="670" width="160" height="60" as="geometry" />
        </mxCell>
        <mxCell id="OBWjnhMwHxojIDaJZw8V-12" value="CHECKS TIMESTAMP OF LAST AUTHORIZATION" style="rounded=0;whiteSpace=wrap;html=1;" vertex="1" parent="mP8zGqXMA4O88I_NiR8t-1">
          <mxGeometry x="280" y="750" width="120" height="60" as="geometry" />
        </mxCell>
        <mxCell id="OBWjnhMwHxojIDaJZw8V-14" value="Returns informations of SigningDetails" style="rounded=0;whiteSpace=wrap;html=1;" vertex="1" parent="mP8zGqXMA4O88I_NiR8t-1">
          <mxGeometry x="280" y="830" width="120" height="60" as="geometry" />
        </mxCell>
      </root>
    </mxGraphModel>
  </diagram>
</mxfile>
